# xmcd
#
# Track frame offsets:
#	150
#	20250
#	36000
#	51900
#	65400
#	81000
#	92625
#	109500
#	129375
#	145500
#	164925
#	176700
#	195750
#	207675
#	222300
#	238575
#	254025
#	266475
#	284625
#	303000
#	324600
#
# Disc length: 4348 seconds
#
# Revision: 1
# Processed by: cddbd v1.5.2PL0 Copyright (c) Steve Scherf et al.
# Submitted via: audiograbber 1.83.01
#
DISCID=3410fa15
DTITLE=Garth Brooks - RS609
DYEAR=2004
DGENRE=Country
TTITLE0=Friends In Low Places (Studio Version)
TTITLE1=Thunder Rolls, The
TTITLE2=Dance, The
TTITLE3=Much Too Young To Feel This Damn Old
TTITLE4=Unanswered Prayers
TTITLE5=Two Of A Kind, Workin' On A Full House
TTITLE6=If Tomorroe Never Comes
TTITLE7=Shameless
TTITLE8=American Honky Tonk Bar Association
TTITLE9=Ain't Goin' Down
TTITLE10=Callin' Baton Rouge
TTITLE11=River, The
TTITLE12=Not Counting You
TTITLE13=Somewhere Other Than The Night
TTITLE14=Rodeo
TTITLE15=What She's Doing Now
TTITLE16=Papa Loved Mama
TTITLE17=We Shall Be Free
TTITLE18=Learning To Live Again
TTITLE19=That Summer
TTITLE20=Data
EXTD=Initial Submit
EXTT0=
EXTT1=
EXTT2=
EXTT3=
EXTT4=
EXTT5=
EXTT6=
EXTT7=
EXTT8=
EXTT9=
EXTT10=
EXTT11=
EXTT12=
EXTT13=
EXTT14=
EXTT15=
EXTT16=
EXTT17=
EXTT18=
EXTT19=
EXTT20=
PLAYORDER=
